<svg height='100px' width='100px'  fill="#E60000" xmlns="http://www.w3.org/2000/svg" xmlns:xlink="http://www.w3.org/1999/xlink" version="1.1" x="0px" y="0px" viewBox="0 0 100 100" enable-background="new 0 0 100 100" xml:space="preserve"><path fill="#E60000" d="M62.5,53.4V37.5C62.5,30.6,56.9,25,50,25c-4.3,0-8.1,2.2-10.4,5.5l6.3,6.3c0.3-2,2-3.5,4-3.5  c2.3,0,4.2,1.9,4.2,4.2v7.6L62.5,53.4z"></path><path fill="#E60000" d="M71.6,62.5h7.6v-25C79.2,21.4,66.1,8.3,50,8.3c-8.9,0-16.9,4-22.2,10.3l6,6c3.8-4.8,9.6-8,16.3-8  c11.5,0,20.8,9.3,20.8,20.8v24.2L71.6,62.5z"></path><path fill="#E60000" d="M10,23.3l11,11c-0.1,1.1-0.2,2.1-0.2,3.2v33.3c0,11.5,9.3,20.8,20.8,20.8c10,0,18.3-7,20.3-16.4l17.3,17.3  l5.3-5.3L15.3,18L10,23.3z M29.2,42.4l8.3,8.3v11.7h8.3v-3.4l8.3,8.3v3.4c0,6.9-5.6,12.5-12.5,12.5s-12.5-5.6-12.5-12.5V42.4z"></path></svg>